<?xml version="1.0" standalone="no"?>
<!DOCTYPE svg PUBLIC "-//W3C//DTD SVG 20010904//EN"
 "http://www.w3.org/TR/2001/REC-SVG-20010904/DTD/svg10.dtd">
<svg version="1.0" xmlns="http://www.w3.org/2000/svg"
 width="381.000000pt" height="381.000000pt" viewBox="0 0 381.000000 381.000000"
 preserveAspectRatio="xMidYMid meet">
<metadata>
Created by potrace 1.14, written by Peter Selinger 2001-2017
</metadata>
<g transform="translate(0.000000,381.000000) scale(0.100000,-0.100000)"
fill="#000000" stroke="none">
<path d="M1630 3790 c-341 -50 -665 -193 -932 -411 -60 -49 -210 -197 -253
-250 -59 -72 -155 -204 -155 -213 0 -2 -17 -33 -39 -67 -113 -187 -211 -483
-238 -714 -10 -87 -10 -347 -1 -440 33 -314 159 -644 342 -895 132 -181 304
-350 466 -458 47 -31 87 -59 90 -62 24 -24 245 -129 348 -167 224 -80 425
-112 677 -108 175 3 223 7 335 30 14 3 37 7 51 10 58 11 210 59 299 95 278
112 543 304 742 537 37 44 136 181 171 236 44 72 132 256 162 337 32 92 82
281 90 347 4 26 9 59 12 73 12 59 11 371 -2 474 -37 293 -141 569 -309 820
-83 124 -223 286 -312 361 -32 27 -61 52 -64 56 -15 18 -166 122 -240 165
-216 126 -430 202 -690 245 -120 19 -416 19 -550 -1z"/>
</g>
</svg>
